name C:\Users\antoi\Documents\MyRepositories\upper-imu-dc\Results\main_tracking\Case_76\kinematics.mot
datacolumns 10
datarows 37
range 3.50000000 3.86000000
endheader 
time	clav_prot	clav_elev	scapula_abduction	scapula_elevation	scapula_upward_rot	scapula_winging	plane_elv	shoulder_elv	axial_rot	
          3.50000000	        -44.44316071	          9.02307156	          0.86598051	         -1.63962913	         84.23273316	        -11.79309742	         37.74840359	         87.71271119	         -7.40472074	
          3.51000000	        -44.44387157	          9.02549938	          0.85758447	         -1.63912964	         84.22410720	        -11.79572115	         37.78755485	         87.68411786	         -7.36378494	
          3.52000000	        -44.44394464	          9.02726091	          0.84980958	         -1.63913046	         84.21465879	        -11.79790695	         37.82501348	         87.65472076	         -7.32294296	
          3.53000000	        -44.44341609	          9.02826175	          0.84263166	         -1.63969626	         84.20440707	        -11.79965086	         37.86050589	         87.62457173	         -7.28217090	
          3.54000000	        -44.44231737	          9.02841868	          0.83604397	         -1.64088170	         84.19338702	        -11.80094585	         37.89381362	         87.59373610	         -7.24141111	
          3.55000000	        -44.44067777	          9.02766665	          0.83004837	         -1.64272739	         84.18164576	        -11.80178588	         37.92478031	         87.56229340	         -7.20058330	
          3.56000000	        -44.43852804	          9.02596505	          0.82464505	         -1.64525638	         84.16923932	        -11.80217043	         37.95331667	         87.53033473	         -7.15960225	
          3.57000000	        -44.43589965	          9.02330088	          0.81983127	         -1.64847222	         84.15623030	        -11.80210525	         37.97939703	         87.49795904	         -7.11840042	
          3.58000000	        -44.43282173	          9.01969066	          0.81560279	         -1.65235795	         84.14268351	        -11.80160162	         38.00305297	         87.46526980	         -7.07695465	
          3.59000000	        -44.42931804	          9.01518132	          0.81195498	         -1.65687590	         84.12866091	        -11.80067552	         38.02436637	         87.43237008	         -7.03531209	
          3.60000000	        -44.42540312	          9.00984927	          0.80888514	         -1.66196868	         84.11421591	        -11.79934597	         38.04346216	         87.39935687	         -6.99361198	
          3.61000000	        -44.42107845	          9.00379780	          0.80639498	         -1.66756139	         84.09938710	        -11.79763301	         38.06050213	         87.36631550	         -6.95210090	
          3.62000000	        -44.41632937	          8.99715308	          0.80449210	         -1.67356486	         84.08419200	        -11.79555580	         38.07568125	         87.33331428	         -6.91113982	
          3.63000000	        -44.41112309	          8.99005921	          0.80319007	         -1.67987954	         84.06862131	        -11.79313116	         38.08922653	         87.30039993	         -6.87120210	
          3.64000000	        -44.40540788	          8.98267312	          0.80250739	         -1.68639951	         84.05263401	        -11.79037267	         38.10139797	         87.26759397	         -6.83286294	
          3.65000000	        -44.39911281	          8.97515966	          0.80246617	         -1.69301621	         84.03615354	        -11.78728991	         38.11249123	         87.23488994	         -6.79678133	
          3.66000000	        -44.39214780	          8.96768643	          0.80309157	         -1.69962226	         84.01906556	        -11.78388760	         38.12284096	         87.20225153	         -6.76367602	
          3.67000000	        -44.38440376	          8.96041868	          0.80441231	         -1.70611497	         84.00121720	        -11.78016455	         38.13282370	         87.16961202	         -6.73429729	
          3.68000000	        -44.37575081	          8.95351490	          0.80646517	         -1.71239908	         83.98241781	        -11.77611120	         38.14285806	         87.13687561	         -6.70939602	
          3.69000000	        -44.36603673	          8.94712317	          0.80930024	         -1.71838885	         83.96244106	        -11.77170734	         38.15340533	         87.10391926	         -6.68969147	
          3.70000000	        -44.35508702	          8.94137823	          0.81298342	         -1.72400963	         83.94102747	        -11.76692091	         38.16497110	         87.07059473	         -6.67584005	
          3.71000000	        -44.34269924	          8.93639610	          0.81760932	         -1.72920075	         83.91788710	        -11.76170254	         38.17809720	         87.03673575	         -6.66840550	
          3.72000000	        -44.32863693	          8.93226805	          0.82331563	         -1.73391858	         83.89270275	        -11.75597944	         38.19334965	         87.00216725	         -6.66783284	
          3.73000000	        -44.31263059	          8.92905873	          0.83028345	         -1.73813763	         83.86513214	        -11.74965531	         38.21131168	         86.96671160	         -6.67442733	
          3.74000000	        -44.29437962	          8.92680755	          0.83873442	         -1.74184953	         83.83480889	        -11.74261178	         38.23258031	         86.93018988	         -6.68833619	
          3.75000000	        -44.27355214	          8.92553167	          0.84893047	         -1.74506096	         83.80134287	        -11.73470922	         38.25776450	         86.89242412	         -6.70954089	
          3.76000000	        -44.24978539	          8.92522501	          0.86118269	         -1.74779273	         83.76433224	        -11.72578470	         38.28746653	         86.85324669	         -6.73785138	
          3.77000000	        -44.22268635	          8.92585663	          0.87586088	         -1.75007920	         83.72337705	        -11.71564991	         38.32226249	         86.81250918	         -6.77290699	
          3.78000000	        -44.19183539	          8.92737217	          0.89339102	         -1.75196693	         83.67808412	        -11.70409330	         38.36270251	         86.77007940	         -6.81419110	
          3.79000000	        -44.15679371	          8.92969407	          0.91424602	         -1.75351453	         83.62807189	        -11.69088452	         38.40931119	         86.72583822	         -6.86105107	
          3.80000000	        -44.11711266	          8.93271805	          0.93893783	         -1.75479462	         83.57297940	        -11.67577833	         38.46258414	         86.67967782	         -6.91272533	
          3.81000000	        -44.07234580	          8.93631150	          0.96800190	         -1.75589520	         83.51247229	        -11.65852144	         38.52299175	         86.63150182	         -6.96837905	
          3.82000000	        -44.02206386	          8.94031513	          1.00197500	         -1.75691918	         83.44624759	        -11.63886220	         38.59098884	         86.58122269	         -7.02714231	
          3.83000000	        -43.96587034	          8.94454690	          1.04137036	         -1.75798259	         83.37403700	        -11.61656149	         38.66702630	         86.52875844	         -7.08815048	
          3.84000000	        -43.90341567	          8.94880960	          1.08665290	         -1.75921052	         83.29560839	        -11.59140383	         38.75156148	         86.47402985	         -7.15058456	
          3.85000000	        -43.83440883	          8.95290093	          1.13821736	         -1.76073112	         83.21076633	        -11.56320750	         38.84506538	         86.41695769	         -7.21370883	
          3.86000000	        -43.75862520	          8.95662455	          1.19637157	         -1.76266899	         83.11935128	        -11.53183260	         38.94802634	         86.35746064	         -7.27690347	
